<svg width="41" height="44" fill="none" xmlns="http://www.w3.org/2000/svg"><ellipse cx="20" cy="40.288" rx="20" ry="3.147" fill="url(#a)" fill-opacity=".5"/><path d="M21 3.053c-3.645.004-7.14 1.525-9.718 4.229-2.578 2.703-4.028 6.37-4.032 10.193-.004 3.125.969 6.165 2.77 8.653 0 0 .375.518.436.593L21 39.764l10.549-13.05c.055-.07.431-.586.431-.586l.001-.004c1.8-2.487 2.773-5.526 2.769-8.65-.004-3.823-1.454-7.489-4.032-10.192C28.14 4.578 24.645 3.057 21 3.052Zm4.5 20.977L21 21.027l-4.5 3.003.75-5.341-3.75-3.61 5.25-.664L21 9.608l2.39 4.808 5.11.663-3.75 3.61.75 5.341Z" fill="#F73E3E"/><defs><radialGradient id="a" cx="0" cy="0" r="1" gradientUnits="userSpaceOnUse" gradientTransform="matrix(0 3.1467 -20 0 20 40.288)"><stop stop-color="#111"/><stop offset="1" stop-color="#111" stop-opacity="0"/></radialGradient></defs></svg>