<svg width="80" height="80" fill="none" xmlns="http://www.w3.org/2000/svg"><g clip-path="url(#a)"><path d="M53.43 51.306c-1.895 0-3.437-1.335-3.437-2.975 0-1.64 1.542-2.976 3.437-2.976 1.896 0 3.438 1.335 3.438 2.976a1.563 1.563 0 0 0 3.125 0c0-2.864-2.134-5.271-5-5.925v-.812a1.563 1.563 0 0 0-3.125 0v.813c-2.867.653-5 3.06-5 5.924 0 3.363 2.944 6.1 6.562 6.1 1.896 0 3.438 1.335 3.438 2.975 0 1.64-1.542 2.976-3.438 2.976-1.895 0-3.437-1.335-3.437-2.976a1.563 1.563 0 0 0-3.125 0c0 2.864 2.133 5.271 5 5.924v.675a1.563 1.563 0 0 0 3.125 0v-.675c2.866-.653 5-3.06 5-5.924 0-3.364-2.944-6.1-6.563-6.1Z" fill="url(#b)"/><path d="M70.544 42.012a20.357 20.357 0 0 0-8.316-7.36 1.562 1.562 0 1 0-1.354 2.817c5.924 2.847 9.751 8.931 9.751 15.5 0 2.81-.693 5.598-2.003 8.06a1.562 1.562 0 1 0 2.759 1.469 20.354 20.354 0 0 0 2.37-9.53c0-3.9-1.11-7.688-3.207-10.956Z" fill="#2B7AF1"/><path d="M55.886 32.657h-.105a1.562 1.562 0 1 0 0 3.124h.098a1.563 1.563 0 0 0 .007-3.124Z" fill="url(#c)"/><path d="M46.001 68.469c-5.923-2.848-9.75-8.932-9.75-15.5 0-2.81.692-5.598 2.003-8.061a1.562 1.562 0 1 0-2.759-1.468 20.354 20.354 0 0 0-2.37 9.529c0 3.9 1.11 7.689 3.206 10.957a20.36 20.36 0 0 0 8.316 7.36 1.563 1.563 0 0 0 1.354-2.817Z" fill="#2B7AF1"/><path d="M51.094 70.156h-.09a1.563 1.563 0 0 0-.014 3.125h.104a1.563 1.563 0 0 0 0-3.125Z" fill="url(#d)"/><path d="M60.532 27.37a7.169 7.169 0 0 0-.694-1.276h4.068c3.963 0 7.188-3.225 7.188-7.188 0-3.963-3.225-7.187-7.188-7.187H51.394a7.146 7.146 0 0 0 1.262-4.063c0-3.963-3.224-7.187-7.187-7.187H7.187C3.224.469 0 3.693 0 7.656s3.224 7.188 7.187 7.188H19.7a7.146 7.146 0 0 0-1.262 4.062c0 1.507.466 2.906 1.262 4.063h-4.075c-3.963 0-7.188 3.224-7.188 7.187a7.176 7.176 0 0 0 2.722 5.625 7.176 7.176 0 0 0 0 11.25 7.176 7.176 0 0 0 0 11.25 7.176 7.176 0 0 0-2.722 5.625c0 3.963 3.225 7.188 7.188 7.188h18.414c4.85 5.188 11.752 8.437 19.399 8.437C68.084 79.531 80 67.615 80 52.97c0-12.19-8.255-22.487-19.468-25.6Zm3.374-12.526a4.067 4.067 0 0 1 4.063 4.062 4.067 4.067 0 0 1-4.063 4.063H25.625a4.067 4.067 0 0 1-4.063-4.063 4.067 4.067 0 0 1 4.063-4.062h38.281ZM7.187 11.719a4.067 4.067 0 0 1-4.062-4.063 4.067 4.067 0 0 1 4.062-4.062H45.47a4.067 4.067 0 0 1 4.062 4.062 4.067 4.067 0 0 1-4.062 4.063H7.187Zm8.438 14.375h38.281c.63 0 1.232.146 1.773.408a26.797 26.797 0 0 0-2.241-.096c-7.336 0-13.986 2.99-18.797 7.813H15.625a4.067 4.067 0 0 1-4.063-4.063 4.067 4.067 0 0 1 4.063-4.062Zm0 11.25h16.346a26.489 26.489 0 0 0-4.016 8.125h-12.33a4.067 4.067 0 0 1-4.063-4.063 4.067 4.067 0 0 1 4.063-4.062Zm0 11.25h11.612a26.628 26.628 0 0 0-.096 8.125H15.625a4.067 4.067 0 0 1-4.063-4.063 4.067 4.067 0 0 1 4.063-4.062Zm0 19.375a4.067 4.067 0 0 1-4.063-4.063 4.067 4.067 0 0 1 4.063-4.062h12.154c.788 2.94 2.07 5.679 3.749 8.125H15.625Zm37.813 8.437C40.514 76.406 30 65.892 30 52.97 30 40.045 40.514 29.53 53.438 29.53c12.923 0 23.437 10.514 23.437 23.438 0 12.923-10.514 23.437-23.437 23.437Z" fill="#2B7AF1"/></g><defs><linearGradient id="b" x1="46.868" y1="52.8" x2="59.995" y2="52.772" gradientUnits="userSpaceOnUse"><stop stop-color="#FF7A00"/><stop offset="1" stop-color="#FFB039"/></linearGradient><linearGradient id="c" x1="54.219" y1="34.219" x2="57.442" y2="34.206" gradientUnits="userSpaceOnUse"><stop stop-color="#FF7A00"/><stop offset="1" stop-color="#FFB039"/></linearGradient><linearGradient id="d" x1="49.434" y1="71.719" x2="52.657" y2="71.705" gradientUnits="userSpaceOnUse"><stop stop-color="#FF7A00"/><stop offset="1" stop-color="#FFB039"/></linearGradient><clipPath id="a"><path fill="#fff" d="M0 0h80v80H0z"/></clipPath></defs></svg>