<svg width="80" height="80" fill="none" xmlns="http://www.w3.org/2000/svg"><g clip-path="url(#a)"><path d="M56.052 26.264c-2.334 0-4.617.332-6.818.986a24.83 24.83 0 0 0 .132-2.56c0-3.954-.908-7.733-2.697-11.23a1.563 1.563 0 0 0-2.782 1.423 21.322 21.322 0 0 1 2.354 9.807c0 11.888-9.67 21.559-21.558 21.559a21.44 21.44 0 0 1-8.022-1.543 1.564 1.564 0 0 0-1.686.345l-3.415 3.415v-5.917c0-.466-.209-.909-.569-1.206A21.5 21.5 0 0 1 3.124 24.69c0-11.887 9.671-21.558 21.559-21.558a21.43 21.43 0 0 1 10.756 2.87A1.562 1.562 0 0 0 37 3.296 24.538 24.538 0 0 0 24.683.007C11.073.007 0 11.08 0 24.69a24.606 24.606 0 0 0 8.436 18.582v8.965a1.562 1.562 0 0 0 2.667 1.105l5.369-5.369c2.632.93 5.39 1.4 8.211 1.4 2.616 0 5.138-.41 7.506-1.168a24.102 24.102 0 0 0-.086 2.007c0 3.657.804 7.168 2.388 10.436a1.563 1.563 0 0 0 2.811-1.364 20.624 20.624 0 0 1-2.074-9.072c0-1.117.09-2.236.268-3.337 6.44-3.152 11.315-9.027 13.114-16.116a20.697 20.697 0 0 1 7.441-1.37c11.483 0 20.825 9.34 20.825 20.823 0 6.379-2.867 12.32-7.865 16.3a1.562 1.562 0 0 0-.588 1.221v6.926l-4.28-4.28A1.562 1.562 0 0 0 62.551 70a20.806 20.806 0 0 1-6.5 1.036c-3.175 0-6.222-.696-9.057-2.068a1.562 1.562 0 0 0-1.361 2.813 23.727 23.727 0 0 0 10.418 2.38 23.94 23.94 0 0 0 6.547-.909l6.282 6.283a1.562 1.562 0 0 0 2.667-1.105v-9.96A23.83 23.83 0 0 0 80 50.213c0-13.205-10.743-23.948-23.948-23.948Z" fill="#2B7AF1"/><path d="M41.55 65.156a14.447 14.447 0 0 1-.143-.14 1.562 1.562 0 0 0-2.2 2.22l.167.162a1.559 1.559 0 0 0 2.21-.033c.6-.619.585-1.608-.034-2.209Z" fill="url(#b)"/><path d="M42.796 7.922a1.562 1.562 0 1 0-2.287 2.13l.015.015a1.559 1.559 0 0 0 2.224.08 1.562 1.562 0 0 0 .048-2.225Z" fill="url(#c)"/><path d="M17.887 19.3a1.571 1.571 0 0 0-1.104-.458c-.411 0-.814.167-1.105.457-.29.29-.457.694-.457 1.105 0 .41.167.814.457 1.104.291.291.694.458 1.105.458a1.567 1.567 0 0 0 1.562-1.562c0-.411-.165-.814-.458-1.105Z" fill="url(#d)"/><path d="M33.688 19.3a1.573 1.573 0 0 0-1.105-.458c-.412 0-.815.167-1.106.457-.29.29-.456.694-.456 1.105 0 .41.166.814.456 1.104.292.291.695.458 1.106.458.411 0 .813-.167 1.105-.458.29-.29.457-.693.457-1.104 0-.411-.167-.814-.457-1.105Z" fill="url(#e)"/><path d="M30.665 28.528a1.562 1.562 0 0 0-1.913 1.106 4.219 4.219 0 0 1-4.069 3.128 4.219 4.219 0 0 1-4.07-3.128 1.562 1.562 0 1 0-3.018.806 7.347 7.347 0 0 0 7.088 5.446c3.316 0 6.23-2.239 7.088-5.446a1.562 1.562 0 0 0-1.107-1.912Z" fill="#2B7AF1"/><path d="M49.519 44.929a1.57 1.57 0 0 0-1.105-.458c-.41 0-.814.167-1.104.458-.29.29-.458.693-.458 1.104 0 .413.167.814.458 1.105.29.29.693.458 1.104.458a1.566 1.566 0 0 0 1.562-1.562c0-.412-.165-.815-.457-1.105Z" fill="url(#f)"/><path d="M64.793 44.929a1.571 1.571 0 0 0-1.105-.458c-.41 0-.814.167-1.104.458-.29.29-.458.694-.458 1.105 0 .412.167.813.458 1.104.29.29.693.458 1.104.458.412 0 .814-.168 1.105-.458.29-.29.457-.694.457-1.104 0-.411-.167-.814-.457-1.105Z" fill="url(#g)"/><path d="M49.15 55.75a7.155 7.155 0 0 0 6.901 5.304c3.23 0 6.068-2.18 6.902-5.303a1.562 1.562 0 1 0-3.018-.807 4.027 4.027 0 0 1-3.883 2.985 4.026 4.026 0 0 1-3.884-2.985 1.563 1.563 0 1 0-3.018.807Z" fill="#2B7AF1"/></g><defs><linearGradient id="b" x1="38.745" y1="66.201" x2="42.025" y2="66.188" gradientUnits="userSpaceOnUse"><stop stop-color="#FF7A00"/><stop offset="1" stop-color="#FFB039"/></linearGradient><linearGradient id="c" x1="40.074" y1="8.99" x2="43.239" y2="8.978" gradientUnits="userSpaceOnUse"><stop stop-color="#FF7A00"/><stop offset="1" stop-color="#FFB039"/></linearGradient><linearGradient id="d" x1="15.221" y1="20.404" x2="18.346" y2="20.391" gradientUnits="userSpaceOnUse"><stop stop-color="#FF7A00"/><stop offset="1" stop-color="#FFB039"/></linearGradient><linearGradient id="e" x1="31.021" y1="20.404" x2="34.146" y2="20.391" gradientUnits="userSpaceOnUse"><stop stop-color="#FF7A00"/><stop offset="1" stop-color="#FFB039"/></linearGradient><linearGradient id="f" x1="46.852" y1="46.033" x2="49.977" y2="46.021" gradientUnits="userSpaceOnUse"><stop stop-color="#FF7A00"/><stop offset="1" stop-color="#FFB039"/></linearGradient><linearGradient id="g" x1="62.126" y1="46.034" x2="65.251" y2="46.021" gradientUnits="userSpaceOnUse"><stop stop-color="#FF7A00"/><stop offset="1" stop-color="#FFB039"/></linearGradient><clipPath id="a"><path fill="#fff" d="M0 0h80v80H0z"/></clipPath></defs></svg>