<svg width="200" height="198" fill="none" xmlns="http://www.w3.org/2000/svg"><path opacity=".8" fill-rule="evenodd" clip-rule="evenodd" d="M0 166.422c29.956-17.112 44.933-37.22 44.933-60.322-12.768-1.712-23.326-7.772-31.674-18.183C4.91 77.507.737 65.457.737 51.767c0-14.547 4.05-26.81 12.154-36.793C20.993 4.99 31.183 0 43.46 0c13.75 0 25.658 6.489 35.725 19.466s15.1 28.735 15.1 47.274c0 55.617-26.762 99.112-80.29 130.486L0 166.422Zm105.714 0c30.201-17.112 45.302-37.22 45.302-60.322-13.014-1.712-23.695-7.772-32.043-18.183-8.348-10.41-12.522-22.46-12.522-36.15 0-14.547 4.113-26.81 12.338-36.793C127.015 4.99 137.266 0 149.542 0c13.75 0 25.597 6.489 35.542 19.466C195.028 32.443 200 48.2 200 66.74c0 55.617-26.64 99.112-79.922 130.486l-14.364-30.804Z" fill="url(#a)"/><defs><linearGradient id="a" x1="200" y1="98.613" x2="-.037" y2="99.431" gradientUnits="userSpaceOnUse"><stop stop-color="#FF7A00"/><stop offset="1" stop-color="#FFB039"/></linearGradient></defs></svg>